<svg xmlns="http://www.w3.org/2000/svg" viewBox="0 0 160 160">
  <rect width="160" height="160" rx="24" fill="#fffaf2"/>
  <path d="M80 26c14 0 26 12 26 26s-12 24-26 24-26-10-26-24 12-26 26-26z" fill="#d2691e"/>
  <path d="M60 72c-10 6-16 16-16 28 0 16 14 30 36 30s36-14 36-30c0-12-6-22-16-28" fill="#e9893d"/>
  <circle cx="66" cy="60" r="6" fill="#fff"/>
  <circle cx="94" cy="60" r="6" fill="#fff"/>
  <path d="M70 88c4 4 16 4 20 0" fill="none" stroke="#5d3b09" stroke-width="6" stroke-linecap="round"/>
  <path d="M54 106c8 6 44 6 52 0" fill="none" stroke="#fff" stroke-width="8" stroke-linecap="round" stroke-dasharray="12 10"/>
  <circle cx="80" cy="42" r="6" fill="#ffd166"/>
</svg>
